<svg xmlns="http://www.w3.org/2000/svg" width="96" height="48" viewBox="0 0 96 48"><style>g.o{fill:none;stroke:#7a5a2e;stroke-width:1;stroke-linecap:round;stroke-linejoin:round;opacity:0.5}.s,.d{fill:#7a5a2e;stroke:none}</style><g class="o"><circle cx="8" cy="12" r="6.9"/><circle cx="8" cy="12" r="2" class="d"/><circle cx="24" cy="12" r="6.9"/><circle cx="24" cy="12" r="2" class="d"/><circle cx="40" cy="12" r="6.9"/><circle cx="40" cy="12" r="2" class="d"/><circle cx="56" cy="12" r="6.9"/><circle cx="56" cy="12" r="2" class="d"/><circle cx="72" cy="12" r="6.9"/><circle cx="72" cy="12" r="2" class="d"/><circle cx="88" cy="12" r="6.9"/><circle cx="88" cy="12" r="2" class="d"/><path d="M0 22H96M0 34H96M2 24L5 32M8 24L11 32M14 24L17 32M20 24L23 32M26 24L29 32M32 24L35 32M38 24L41 32M44 24L47 32M50 24L53 32M56 24L59 32M62 24L65 32M68 24L71 32M74 24L77 32M80 24L83 32M86 24L89 32M92 24L95 32"/></g></svg>